# xmcd
#
# Track frame offsets: 
#        150
#        17511
#        30228
#        47049
#        70107
#        85605
#        101535
#        115953
#        136797
#        148758
#        165093
#        183966
#        195954
#        209643
#        223386
#        242664
#        265209
#        280896
#
# Disc length: 4048 seconds
#
# Revision: 1
# Processed by: cddbd v1.5.2PL0 Copyright (c) Steve Scherf et al.
# Submitted via: ExactAudioCopy v0.95b2
#
DISCID=f50fce12
DTITLE=動感唱片 - 品茶輕音樂 VOL.2 CD1
DYEAR=2005
DGENRE=Musical
TTITLE0=不裝飾你的夢
TTITLE1=萬水千山總是情
TTITLE2=紅樓夢
TTITLE3=禪院鐘聲
TTITLE4=分飛燕
TTITLE5=春風吻上我的臉
TTITLE6=岷江夜曲
TTITLE7=嘆十聲
TTITLE8=今宵多珍重
TTITLE9=前世註定
TTITLE10=情人的眼淚\
TTITLE11=神秘女郎
TTITLE12=我是痴情無限
TTITLE13=心裡的火花
TTITLE14=夜來香
TTITLE15=月亮彎彎照九州
TTITLE16=緣
TTITLE17=最後一次擁抱
EXTD=
EXTT0=
EXTT1=
EXTT2=
EXTT3=
EXTT4=
EXTT5=
EXTT6=
EXTT7=
EXTT8=
EXTT9=
EXTT10=
EXTT11=
EXTT12=
EXTT13=
EXTT14=
EXTT15=
EXTT16=
EXTT17=
PLAYORDER=
